<svg width="79" height="81" viewBox="0 0 79 81" fill="none" xmlns="http://www.w3.org/2000/svg">
<path d="M71.2202 9.17794C71.0567 9.1713 70.8931 9.17019 70.7294 9.1748H64.5607V3.87354C64.5609 1.75304 62.5367 0.5 60.4162 0.5H54.7295C52.609 0.5 51.0669 1.75304 51.0669 3.87354V9.17462H27.9343V3.87354C27.9343 1.75304 26.3922 0.5 24.2717 0.5H18.5849C16.4646 0.5 14.4404 1.75304 14.4404 3.87354V9.17462H8.27182C4.33412 9.06485 1.053 12.1681 0.943232 16.1056C0.938619 16.2691 0.939726 16.4329 0.946368 16.5964V72.3071C0.946368 76.5481 4.03063 80.4998 8.27164 80.4998H70.7296C74.9706 80.4998 78.0549 76.5481 78.0549 72.3071V16.5964C78.2161 12.6605 75.156 9.33918 71.2202 9.17794ZM54.7295 4.35543H60.7055V14.9578H54.7295V4.35543ZM18.5851 4.35543H24.0791V14.9578H18.5851V4.35543ZM74.1995 72.3071C74.1995 74.4276 72.8501 76.6444 70.7296 76.6444H8.27182C6.15132 76.6444 4.80198 74.4276 4.80198 72.3071V31.3434H74.1995V72.3071ZM74.1995 16.5964V27.488H4.80179V16.5964C4.63852 14.7939 5.96739 13.2003 7.76983 13.0371C7.93661 13.0219 8.10449 13.0197 8.27164 13.0302H14.4404V15.1507C14.4404 17.2712 16.4644 18.8134 18.5849 18.8134H24.2717C26.2406 18.8674 27.8803 17.315 27.9343 15.3461C27.9362 15.281 27.9362 15.2159 27.9343 15.1507V13.03H51.0669V15.1505C51.0129 17.1194 52.5653 18.7591 54.5342 18.8132C54.5993 18.815 54.6644 18.815 54.7295 18.8132H60.4164C62.5369 18.8132 64.5609 17.271 64.5609 15.1505V13.03H70.7296C72.5359 12.9162 74.0925 14.2883 74.2063 16.0946C74.2168 16.2617 74.2146 16.4296 74.1995 16.5964Z" fill="white"/>
<path d="M28.8023 57.6569L27.0674 67.2955C26.9987 67.7089 27.0666 68.1336 27.2609 68.505C27.7544 69.4483 28.9193 69.813 29.8625 69.3195L38.5372 64.7894L47.2118 69.3195L48.0792 69.5123C48.4975 69.5197 48.9057 69.3835 49.2358 69.1267C49.8119 68.7059 50.1084 68.0015 50.0069 67.2953L48.272 57.6567L55.3082 50.9098C55.8117 50.3658 55.9943 49.5983 55.7901 48.8858C55.5305 48.2272 54.9457 47.7522 54.2479 47.6328L44.6094 46.187L40.2721 37.4159C40.083 37.0255 39.7679 36.7102 39.3775 36.5213C38.4193 36.0573 37.2664 36.4578 36.8022 37.4159L32.4649 46.187L22.8264 47.6328C22.1286 47.752 21.5438 48.2272 21.2842 48.8858C21.08 49.5983 21.2628 50.3658 21.7661 50.9098L28.8023 57.6569ZM34.1035 49.8498C34.7089 49.7592 35.2217 49.3563 35.4529 48.7895L38.5372 42.6208L41.6214 48.7895C41.8528 49.3563 42.3655 49.7592 42.9708 49.8498L49.8141 50.8135L44.8985 55.5364C44.4406 55.9897 44.2258 56.6339 44.3201 57.2713L45.4767 64.1147L39.4044 60.8377L38.537 60.6449L37.6695 60.8377L31.5973 64.1147L32.7538 57.2713C32.8483 56.6339 32.6334 55.9897 32.1755 55.5364L27.2598 50.8135L34.1035 49.8498Z" fill="white"/>
</svg>
