<svg width="80" height="81" viewBox="0 0 80 81" fill="none" xmlns="http://www.w3.org/2000/svg">
<g clip-path="url(#clip0_2330_909)">
<path d="M74.0901 13.227C68.367 13.227 63.711 8.57094 63.711 2.84812V0.5H16.2881V2.84812C16.2881 8.57125 11.632 13.227 5.90916 13.227H3.56104V28.8423C3.56104 40.0634 6.94119 50.8683 13.3365 60.0886C19.7318 69.3088 28.6673 76.2606 39.177 80.1922L39.9996 80.5L40.8224 80.1922C51.3323 76.2606 60.2678 69.3089 66.6628 60.0886C73.0581 50.8683 76.4382 40.0634 76.4382 28.8423V13.227H74.0901ZM71.7421 28.8423H71.742C71.742 39.1023 68.6512 48.9814 62.8037 57.4119C57.1242 65.6006 49.2526 71.8327 39.9995 75.4775C30.7465 71.8325 22.8748 65.6006 17.1953 57.4119C11.3479 48.9816 8.25729 39.1023 8.25729 28.8423V17.7408C14.6932 16.7298 19.7909 11.6322 20.8018 5.19625H59.1976C60.2084 11.6322 65.306 16.7298 71.7421 17.7408V28.8423Z" fill="white"/>
<path d="M50.4772 22.5605L34.9339 38.104L29.5213 32.6913L19.5591 42.6537L34.9339 58.0286L60.4394 32.5229L50.4772 22.5605ZM26.2006 42.654L29.5214 39.3332L34.9341 44.7459L50.4774 29.2024L53.7981 32.5232L34.9341 51.3873L26.2006 42.654Z" fill="white"/>
</g>
<defs>
<clipPath id="clip0_2330_909">
<rect width="80" height="80" fill="white" transform="translate(0 0.5)"/>
</clipPath>
</defs>
</svg>
